<svg width="32" height="32" viewBox="0 0 32 32" fill="#8d99a4" xmlns="http://www.w3.org/2000/svg">
<path d="M27.307 6.107L30 3.414L28.586 2L25.893 4.693L24.8 3.6C24.6195 3.41036 24.4023 3.25938 24.1616 3.15621C23.9209 3.05305 23.6618 2.99985 23.4 2.99985C23.1382 2.99985 22.8791 3.05305 22.6384 3.15621C22.3977 3.25938 22.1805 3.41036 22 3.6L4 21.6V28H10.4L28.4 10C28.5896 9.81946 28.7406 9.60227 28.8438 9.36161C28.947 9.12095 29.0002 8.86184 29.0002 8.6C29.0002 8.33816 28.947 8.07905 28.8438 7.83839C28.7406 7.59773 28.5896 7.38054 28.4 7.2L27.307 6.107ZM9.6 26H6V22.4L23.4 5L27 8.6L9.6 26ZM9 11.586L16.586 4L18 5.414L10.414 13L9 11.586Z"/>
</svg>
